<mxfile host="app.diagrams.net" modified="2023-03-24T02:56:37.082Z" agent="Mozilla/5.0 (Macintosh; Intel Mac OS X 10.15; rv:109.0) Gecko/20100101 Firefox/111.0" version="21.1.0" etag="7szMgeYqhZ_5fRO8JVOH" type="github">
  <diagram name="Page-1" id="r3I9caMROZDTtL0_eOEM">
    <mxGraphModel>
      <root>
        <mxCell id="0" />
        <mxCell id="1" parent="0" />
      </root>
    </mxGraphModel>
  </diagram>
</mxfile>
